<svg width="36" height="35" viewBox="0 0 36 35" fill="none" xmlns="http://www.w3.org/2000/svg">
<path opacity="0.4" d="M18 7.73125V31.1083C18.2479 31.1083 18.5104 31.0646 18.7146 30.9479L18.7729 30.9187C21.5729 29.3875 26.4583 27.7833 29.6229 27.3604L30.0458 27.3021C31.4458 27.1271 32.5833 25.8146 32.5833 24.4146V6.79792C32.5833 5.0625 31.1687 3.75 29.4333 3.89584C26.3708 4.14375 21.7333 5.68959 19.1375 7.30834L18.7729 7.52709C18.5542 7.65834 18.2771 7.73125 18 7.73125Z" fill="#43515C"/>
<path d="M3.41797 6.80975V24.4118C3.41797 25.8118 4.55547 27.1243 5.95547 27.2993L6.43672 27.3577C9.61589 27.7806 14.5159 29.3993 17.3159 30.9452C17.5055 31.0618 17.7388 31.1056 18.0013 31.1056V7.7285C17.7242 7.7285 17.4471 7.65558 17.2284 7.52433L16.9805 7.36391C14.3846 5.73058 9.73255 4.17016 6.67005 3.90766H6.58255C4.84714 3.76183 3.41797 5.05975 3.41797 6.80975ZM28.2096 4.05495V10.3112C28.2096 10.8945 27.568 11.2445 27.0721 10.9237L25.293 9.74246L23.5138 10.9237C23.4031 10.9962 23.2749 11.0374 23.1427 11.043C23.0106 11.0487 22.8793 11.0186 22.7628 10.9559C22.6464 10.8931 22.549 10.8001 22.4809 10.6867C22.4129 10.5732 22.3767 10.4435 22.3763 10.3112V5.71746C24.2867 4.95912 26.4159 4.34662 28.2096 4.05495Z" fill="#43515C"/>
</svg>
