<svg width="20" height="28" viewBox="0 0 20 28" fill="none" xmlns="http://www.w3.org/2000/svg">
<path d="M10.1577 0.839844C4.83239 0.839844 0.5 5.17224 0.5 10.4974C0.5 17.1062 9.14261 26.8082 9.51061 27.218C9.85621 27.6029 10.4597 27.6022 10.8047 27.218C11.1726 26.8082 19.8153 17.1062 19.8153 10.4974C19.8151 5.17224 15.4829 0.839844 10.1577 0.839844ZM10.1577 15.3565C7.47837 15.3565 5.29869 13.1768 5.29869 10.4974C5.29869 7.81818 7.47843 5.63848 10.1577 5.63848C12.8369 5.63848 15.0166 7.81823 15.0166 10.4975C15.0166 13.1768 12.8369 15.3565 10.1577 15.3565Z" fill="black"/>
</svg>
