<svg width="30" height="30" viewBox="0 0 30 30" fill="none" xmlns="http://www.w3.org/2000/svg">
<g id="Iconsax/Bulk/like">
<path id="Vector" opacity="0.4" d="M22.5 23.5781H21.55C20.55 23.5781 19.6 23.9656 18.9 24.6656L16.7625 26.7781C15.7875 27.7406 14.2 27.7406 13.225 26.7781L11.0875 24.6656C10.3875 23.9656 9.425 23.5781 8.4375 23.5781H7.5C5.425 23.5781 3.75 21.9156 3.75 19.8656V6.22813C3.75 4.17812 5.425 2.51562 7.5 2.51562H22.5C24.575 2.51562 26.25 4.17812 26.25 6.22813V19.8656C26.25 21.9031 24.575 23.5781 22.5 23.5781Z" fill="#979797"/>
<path id="Vector_2" d="M15.35 18.7C15.1625 18.7625 14.85 18.7625 14.65 18.7C13.025 18.1375 9.375 15.825 9.375 11.8875C9.375 10.15 10.775 8.75 12.5 8.75C13.525 8.75 14.425 9.2375 15 10C15.575 9.2375 16.475 8.75 17.5 8.75C19.225 8.75 20.625 10.15 20.625 11.8875C20.6125 15.825 16.975 18.1375 15.35 18.7Z" fill="#979797"/>
</g>
</svg>
