<svg width="77" height="87" viewBox="0 0 77 87" fill="none" xmlns="http://www.w3.org/2000/svg">
<path d="M48.8691 38.9709L58.4784 33.5046C59.153 33.1217 59.985 33.1217 60.6596 33.5046L66.2498 36.6853C66.9244 37.0682 67.7564 37.0682 68.431 36.6853L75.5325 32.6449C76.2071 32.262 76.6243 31.5502 76.6243 30.7821V22.7013C76.6243 21.9331 76.2095 21.2237 75.5325 20.8384L68.431 16.798C67.7564 16.4151 66.9244 16.4151 66.2498 16.798L60.55 20.0398C59.8754 20.4227 59.0434 20.4227 58.3688 20.0398L48.8667 14.6345C48.1921 14.2516 47.7749 13.5399 47.7749 12.7717V6.35406C47.7749 5.58591 47.3601 4.87649 46.6831 4.49124L39.5864 0.45319C38.9117 0.0702909 38.0798 0.0702909 37.4051 0.45319L30.3036 4.49359C29.629 4.87649 29.2118 5.58826 29.2118 6.35641V12.7788C29.2118 13.5469 28.797 14.2563 28.12 14.6416L18.618 20.0468C17.9433 20.4297 17.1114 20.4297 16.4368 20.0468L10.737 16.8051C10.0623 16.4222 9.23036 16.4222 8.55573 16.8051L1.45899 20.8408C0.784362 21.2237 0.367188 21.9355 0.367188 22.7036V30.7844C0.367188 31.5526 0.781978 32.262 1.45899 32.6472L7.10396 35.8584C7.77859 36.2413 8.19577 36.9531 8.19577 37.7212V48.6867C8.19577 49.4548 7.78098 50.1643 7.10396 50.5495L1.45899 53.7607C0.784362 54.1436 0.367188 54.8553 0.367188 55.6235V63.7043C0.367188 64.4725 0.781978 65.1819 1.45899 65.5671L8.5605 69.6075C9.23513 69.9904 10.0671 69.9904 10.7417 69.6075L16.4153 66.3799C17.0899 65.997 17.9219 65.997 18.5965 66.3799L28.1248 71.8016C28.7994 72.1844 29.2166 72.8962 29.2166 73.6644V80.0867C29.2166 80.8549 29.6314 81.5643 30.3084 81.9495L37.4099 85.9899C38.0845 86.3728 38.9165 86.3728 39.5911 85.9899L46.6926 81.9495C47.3673 81.5667 47.7844 80.8549 47.7844 80.0867V73.6644C47.7844 72.8962 48.1992 72.1868 48.8762 71.8016L58.4045 66.3799C59.0791 65.997 59.9111 65.997 60.5857 66.3799L66.2593 69.6075C66.9339 69.9904 67.7659 69.9904 68.4405 69.6075L75.542 65.5671C76.2167 65.1842 76.6339 64.4725 76.6339 63.7043V55.6235C76.6339 54.8553 76.2191 54.1459 75.542 53.7607L68.4405 49.7203C67.7659 49.3374 66.9339 49.3374 66.2593 49.7203L60.643 52.915C59.9683 53.2979 59.1364 53.2979 58.4617 52.915L48.8786 47.4628C48.204 47.0799 47.7868 46.3682 47.7868 45.6V40.8337C47.7868 40.0656 48.2016 39.3562 48.8786 38.9709H48.8691ZM56.9694 63.8711L47.4149 69.3068C46.7403 69.6897 45.9083 69.6897 45.2337 69.3068L41.0453 66.9225C40.3707 66.5396 39.9535 65.8279 39.9535 65.0597V54.1859C39.9535 53.4177 40.3683 52.7083 41.0453 52.323L45.2337 49.9387C45.9083 49.5558 46.7403 49.5558 47.4149 49.9387L56.9694 55.3745C57.6441 55.7574 58.0612 56.4692 58.0612 57.2373V62.0036C58.0612 62.7717 57.6465 63.4811 56.9694 63.8664V63.8711ZM56.9694 31.0475L47.4126 36.4833C46.7379 36.8662 45.906 36.8662 45.2313 36.4833L41.0429 34.1013C40.3683 33.7184 39.9511 33.0066 39.9511 32.2385V21.3646C39.9511 20.5965 40.3659 19.8871 41.0429 19.5018L45.2313 17.1199C45.906 16.737 46.7379 16.737 47.4126 17.1199L56.9694 22.5556C57.6441 22.9385 58.0612 23.6503 58.0612 24.4184V29.1847C58.0612 29.9528 57.6465 30.6623 56.9694 31.0475ZM37.0404 21.367V32.2408C37.0404 33.009 36.6256 33.7184 35.9486 34.1036L31.7673 36.4833C31.0927 36.8685 30.2607 36.8662 29.5837 36.4833L20.0221 31.0358C19.3474 30.6505 18.9326 29.9411 18.9326 29.1753V24.4255C18.9326 23.6573 19.3474 22.9479 20.0245 22.5627L29.5813 17.1269C30.256 16.744 31.0879 16.744 31.7626 17.1269L35.951 19.5089C36.6256 19.8918 37.0428 20.6035 37.0428 21.3717L37.0404 21.367ZM18.5274 33.4952L28.1224 38.9615C28.797 39.3468 29.2118 40.0562 29.2118 40.822V45.5201C29.2118 46.293 28.7899 47.0071 28.1105 47.3876L18.3915 52.8398C17.7193 53.218 16.8921 53.2157 16.2222 52.8328L12.1959 50.5425C11.5212 50.1596 11.1041 49.4478 11.1041 48.6796V37.7142C11.1041 36.946 11.5189 36.2366 12.1959 35.8514L16.3438 33.4905C17.0184 33.1053 17.8504 33.1076 18.5274 33.4905V33.4952ZM20.034 55.2218L29.5217 49.8988C30.194 49.5206 31.0212 49.523 31.691 49.9059L35.9486 52.3277C36.6232 52.7106 37.0404 53.4224 37.0404 54.1906V65.0644C37.0404 65.8326 36.6256 66.542 35.9486 66.9272L31.7602 69.3115C31.0855 69.6944 30.2536 69.6944 29.5789 69.3115L20.0245 63.8758C19.3498 63.4929 18.9326 62.7811 18.9326 62.013V57.094C18.9326 56.3212 19.3546 55.6071 20.034 55.2265V55.2218Z" fill="url(#paint0_linear_996_24104)"/>
<defs>
<linearGradient id="paint0_linear_996_24104" x1="21.5859" y1="71.6677" x2="54.9713" y2="13.7885" gradientUnits="userSpaceOnUse">
<stop stop-color="#4066B0"/>
<stop offset="0.75" stop-color="#81D2E8"/>
</linearGradient>
</defs>
</svg>
