<svg width="40" height="40" viewBox="0 0 40 40" fill="none" xmlns="http://www.w3.org/2000/svg">
<rect width="40" height="40" rx="3" fill="#F1F1F1"/>
<path fill-rule="evenodd" clip-rule="evenodd" d="M23.6558 12.6621H14.1669C12.42 12.6621 11.0039 14.1266 11.0039 15.9332V28.6086C11.0039 28.8344 11.1809 29.0175 11.3993 29.0175C11.5038 29.0168 11.6036 28.9726 11.676 28.8948L14.0483 26.4415C14.5024 25.9842 15.1146 25.7339 15.7484 25.7464H23.6558C25.4026 25.7464 26.8188 24.2819 26.8188 22.4753V15.9332C26.8188 14.1266 25.4026 12.6621 23.6558 12.6621ZM20.4928 21.2487C20.4928 21.4745 20.3158 21.6576 20.0975 21.6576H14.5623C14.3439 21.6576 14.1669 21.4745 14.1669 21.2487V20.4309C14.1669 20.2051 14.3439 20.022 14.5623 20.022H20.0975C20.3158 20.022 20.4928 20.2051 20.4928 20.4309V21.2487ZM23.2604 18.3865C23.4787 18.3865 23.6558 18.2034 23.6558 17.9776V17.1598C23.6558 16.934 23.4787 16.751 23.2604 16.751H14.5623C14.3439 16.751 14.1669 16.934 14.1669 17.1598V17.9776C14.1669 18.2034 14.3439 18.3865 14.5623 18.3865H23.2604Z" fill="black"/>
<ellipse cx="26.0278" cy="14.051" rx="2.96529" ry="3.06663" fill="#81D2E8"/>
</svg>
