<svg width="40" height="40" viewBox="0 0 40 40" fill="none" xmlns="http://www.w3.org/2000/svg">
<rect width="40" height="40" rx="3" fill="#F1F1F1"/>
<path d="M25.5443 26.3358H24.842C24.1028 26.3358 23.4005 26.6222 22.883 27.1397L21.3029 28.7013C20.5821 29.4129 19.4086 29.4129 18.6879 28.7013L17.1077 27.1397C16.5903 26.6222 15.8788 26.3358 15.1488 26.3358H14.4557C12.9218 26.3358 11.6836 25.1068 11.6836 23.5914V13.51C11.6836 11.9946 12.9218 10.7656 14.4557 10.7656H25.5443C27.0782 10.7656 28.3164 11.9946 28.3164 13.51V23.5914C28.3164 25.0976 27.0782 26.3358 25.5443 26.3358Z" fill="black"/>
<path d="M20.2568 22.7304C20.1182 22.7766 19.8872 22.7766 19.7393 22.7304C18.5381 22.3146 15.8398 20.6051 15.8398 17.6944C15.8398 16.4099 16.8748 15.375 18.15 15.375C18.9077 15.375 19.573 15.7354 19.998 16.299C20.4231 15.7354 21.0884 15.375 21.8461 15.375C23.1213 15.375 24.1563 16.4099 24.1563 17.6944C24.147 20.6051 21.458 22.3146 20.2568 22.7304Z" fill="#F1F1F1"/>
</svg>
