<svg width="31" height="30" viewBox="0 0 31 30" fill="none" xmlns="http://www.w3.org/2000/svg">
<g id="Iconsax/Bulk/share">
<path id="Vector" opacity="0.4" d="M25.9492 15.9144C25.4867 15.9144 25.0992 15.5644 25.0492 15.1019C24.9016 13.7443 24.4634 12.4343 23.7646 11.261C23.0658 10.0876 22.1226 9.07844 20.9992 8.30192C20.9012 8.23406 20.8176 8.14749 20.7532 8.04719C20.6888 7.94689 20.6449 7.83484 20.624 7.71749C20.6031 7.60015 20.6056 7.47982 20.6314 7.36345C20.6572 7.24708 20.7057 7.13695 20.7742 7.03942C21.0617 6.62692 21.6242 6.52692 22.0367 6.81442C23.3724 7.74202 24.4941 8.94481 25.3264 10.3419C26.1586 11.7391 26.6821 13.2982 26.8617 14.9144C26.9117 15.4144 26.5492 15.8644 26.0492 15.9144H25.9492ZM5.17423 15.9757H5.08673C4.84653 15.9504 4.62613 15.831 4.47383 15.6436C4.32153 15.4561 4.24975 15.2159 4.27423 14.9757C4.44074 13.3627 4.95082 11.8041 5.77016 10.4047C6.5895 9.00537 7.69908 7.79776 9.02423 6.86317C9.42423 6.57567 9.99923 6.67567 10.2867 7.07567C10.5742 7.48817 10.4742 8.05067 10.0742 8.33817C8.96194 9.1234 8.03061 10.1376 7.34283 11.3127C6.65505 12.4877 6.22676 13.7964 6.08673 15.1507C6.03673 15.6257 5.63673 15.9757 5.17423 15.9757ZM20.4867 26.3744C18.9492 27.1119 17.2992 27.4869 15.5742 27.4869C13.7742 27.4869 12.0617 27.0869 10.4617 26.2744C10.355 26.222 10.2598 26.1488 10.1817 26.0591C10.1036 25.9695 10.0442 25.8651 10.007 25.7522C9.96974 25.6393 9.95539 25.5201 9.96479 25.4016C9.97419 25.283 10.0071 25.1676 10.0617 25.0619C10.2742 24.6119 10.8242 24.4369 11.2742 24.6494C12.0617 25.0494 12.8992 25.3244 13.7492 25.4869C14.8992 25.7119 16.0742 25.7244 17.2242 25.5244C18.0742 25.3744 18.9117 25.1119 19.6867 24.7369C20.1492 24.5244 20.6992 24.6994 20.8992 25.1619C21.1242 25.6119 20.9492 26.1619 20.4867 26.3744Z" fill="#979797"/>
<path id="Vector_2" d="M15.5641 2.51562C13.6266 2.51562 12.0391 4.09062 12.0391 6.04062C12.0391 7.99062 13.6141 9.56562 15.5641 9.56562C17.5141 9.56562 19.0891 7.99062 19.0891 6.04062C19.0891 4.09062 17.5141 2.51562 15.5641 2.51562ZM6.81406 17.3394C4.87656 17.3394 3.28906 18.9144 3.28906 20.8644C3.28906 22.8144 4.86406 24.3894 6.81406 24.3894C8.76406 24.3894 10.3391 22.8144 10.3391 20.8644C10.3391 18.9144 8.75156 17.3394 6.81406 17.3394ZM24.1891 17.3394C22.2516 17.3394 20.6641 18.9144 20.6641 20.8644C20.6641 22.8144 22.2391 24.3894 24.1891 24.3894C26.1391 24.3894 27.7141 22.8144 27.7141 20.8644C27.7141 18.9144 26.1391 17.3394 24.1891 17.3394Z" fill="#979797"/>
</g>
</svg>
